PathFileType	4	(X/Y/Z)	..\data\2014019\dynamic\2014019_C5_03.trc
DataRate	CameraRate	NumFrames	NumMarkers	Units	OrigDataRate	OrigDataStartFrame	OrigNumFrames
100.000000	100.000000	4	52	mm	100.000000	124	142
Frame#	Time	L_IAS			L_IPS			R_IPS			R_IAS			L_FTC			L_FLE			L_FME			L_FAX			L_TTC			L_FAL			L_TAM			L_FCC			L_FM1			L_FM2			L_FM5			R_FTC			R_FLE			R_FME			R_FAX			R_TTC			R_FAL			R_TAM			R_FCC			R_FM1			R_FM2			R_FM5			CV7			TV10			SXS			SJN			L_SIA			L_SRS			L_SAA			L_SAE			L_HLE			L_HME			L_UOA			L_RSP			L_UHE			L_HM2			L_HM5			R_SIA			R_SRS			R_SAA			R_SAE			R_HLE			R_HME			R_UOA			R_RSP			R_UHE			R_HM2			R_HM5			
		X1	Y1	Z1	X2	Y2	Z2	X3	Y3	Z3	X4	Y4	Z4	X5	Y5	Z5	X6	Y6	Z6	X7	Y7	Z7	X8	Y8	Z8	X9	Y9	Z9	X10	Y10	Z10	X11	Y11	Z11	X12	Y12	Z12	X13	Y13	Z13	X14	Y14	Z14	X15	Y15	Z15	X16	Y16	Z16	X17	Y17	Z17	X18	Y18	Z18	X19	Y19	Z19	X20	Y20	Z20	X21	Y21	Z21	X22	Y22	Z22	X23	Y23	Z23	X24	Y24	Z24	X25	Y25	Z25	X26	Y26	Z26	X27	Y27	Z27	X28	Y28	Z28	X29	Y29	Z29	X30	Y30	Z30	X31	Y31	Z31	X32	Y32	Z32	X33	Y33	Z33	X34	Y34	Z34	X35	Y35	Z35	X36	Y36	Z36	X37	Y37	Z37	X38	Y38	Z38	X39	Y39	Z39	X40	Y40	Z40	X41	Y41	Z41	X42	Y42	Z42	X43	Y43	Z43	X44	Y44	Z44	X45	Y45	Z45	X46	Y46	Z46	X47	Y47	Z47	X48	Y48	Z48	X49	Y49	Z49	X50	Y50	Z50	X51	Y51	Z51	X52	Y52	Z52	

125	1.24	829.199645996094	921.4967041015627	124.7339553833009	620.2470703125001	987.020935058594	190.3516082763673	612.0991210937501	969.3791503906252	287.1400146484376	814.1663208007815	921.2819824218752	355.8974914550783	739.8301391601564	870.606384277344	35.6950798034669	672.8394165039064	456.4539489746095	103.4553222656251	626.0750122070314	456.1656799316407	232.303665161133	638.6208496093751	404.4601135253907	97.34099578857433	678.4016113281251	386.6714172363282	157.2652893066407	538.0087890625001	69.25898742675783	150.812469482422	558.8721313476564	93.6305618286133	243.0013885498048	486.219207763672	31.78123855590821	190.1510620117188	671.8429565429689	17.4613094329834	254.2474517822267	694.5407104492189	31.19308280944825	200.4102478027345	660.2423706054689	15.74113750457764	139.9097290039064	716.2979736328126	832.100036621094	436.8221435546877	913.472351074219	472.8466796875001	377.1639404296877	940.2194824218752	468.5831909179689	244.6418609619142	889.107604980469	422.057586669922	380.8909301757814	955.4524536132815	399.3857727050782	334.3181762695314	797.8796386718752	94.10482025146486	353.9508056640627	835.6997070312502	96.28611755371097	270.063934326172	755.2689208984376	52.80124664306642	295.1875000000002	952.0490722656252	28.79815101623536	301.593475341797	949.666931152344	42.98711013793946	357.8845214843752	901.0571899414065	28.07868766784669	398.9077758789065	684.6578979492189	1463.562377929688	237.9864349365236	609.2656860351564	1253.412719726563	229.3360443115236	832.5406494140627	1146.630126953125	259.4060668945314	804.7296142578127	1375.09326171875	251.8402557373048	616.0001220703126	1290.904052734375	146.2282867431642	665.5286254882814	1412.83349609375	124.7475662231446	707.2774658203126	1405.197509765625	64.78099822998057	756.3873901367189	1420.010375976563	60.33832931518565	732.0291748046876	1083.986083984375	-8.462849617004307	707.6002197265626	1079.815063476563	55.02984237670908	710.6204833984376	1054.696533203125	27.2740364074708	901.8857421875002	891.7255859375002	-11.84380435943593	842.906921386719	872.554626464844	-48.32238769531241	957.3403320312502	831.4419555664065	-36.34040069580067	868.997009277344	786.4584960937502	-53.45966339111319	595.2400512695314	1286.032104492188	296.5755004882814	639.6890869140626	1417.850952148438	332.2162170410157	673.5791625976564	1420.228393554688	399.0535888671877	710.9371337890626	1431.672973632813	409.1506958007815	606.7514038085938	1119.100830078125	481.5702209472658	585.2376098632814	1119.066284179688	406.7427673339845	570.6243286132814	1100.767211914063	444.7333374023439	662.5289916992188	867.2981567382815	485.1915893554689	599.31787109375	880.7746582031252	517.922790527344	665.7223510742188	772.971862792969	506.0851440429689	567.548583984375	799.8928833007815	506.3327941894533	
126	1.25	845.0723876953127	918.716735839844	124.8175354003908	636.5875244140626	984.7224121093752	193.1087036132814	629.2180175781251	966.6855468750002	289.5919799804689	832.086364746094	919.5115356445315	356.4998779296877	754.3707275390626	868.843444824219	36.93516540527354	681.2349243164064	455.889373779297	104.4054565429689	634.7774658203126	456.4340820312501	233.2799377441408	645.8519287109376	404.5313415527345	98.1816864013673	685.3551025390626	385.9356994628907	158.0744018554689	538.6993408203126	71.18267822265626	151.2106475830079	559.8385009765626	94.87117004394533	243.5817413330079	486.4642028808595	34.28968811035157	190.4104614257813	672.0894165039064	17.45003700256348	254.3541412353517	694.7319335937501	31.28380584716798	200.409149169922	660.2542724609376	16.15665245056153	140.0697479248048	735.2523803710939	830.382751464844	438.7317199707034	934.5778808593752	472.5335693359376	377.7993164062502	959.3272094726565	467.7010192871095	245.1438446044924	913.306335449219	419.773406982422	382.0184936523439	980.5833129882815	401.2088623046876	335.1528930664064	848.6917724609377	85.65599060058595	356.3343505859377	885.749450683594	90.45694732666017	272.2881774902345	809.5642089843752	40.98273086547852	297.7739868164064	1007.099853515625	32.38241577148438	304.5818481445314	1003.489318847656	47.20766067504884	360.8891906738283	956.4459228515627	29.23173332214356	402.0124511718752	702.3056030273439	1461.35595703125	237.7095184326173	626.5787353515626	1251.376586914063	229.3604583740236	849.7532958984377	1143.2646484375	259.584930419922	822.4405517578127	1372.541259765625	252.0329742431642	633.9691772460939	1288.695678710938	145.6551513671876	683.5823364257814	1410.643188476563	124.1998596191407	725.6369018554689	1403.078002929688	64.40923309326182	774.7750244140627	1418.230590820313	60.62682723999034	756.6744384765626	1081.905029296875	-10.32418727874747	731.1295776367189	1076.901123046875	52.80996704101573	735.5557250976564	1051.534790039063	25.02833366394053	936.407897949219	898.4809570312502	-10.50777435302723	879.2634887695315	876.1644287109377	-48.25669097900381	995.2649536132815	841.050231933594	-33.62257766723621	909.8397216796877	791.4776000976565	-52.8728141784667	612.4515380859376	1283.746337890625	295.7410278320314	656.9442138671876	1415.61181640625	331.5807189941407	690.4536132812501	1418.03759765625	398.7659912109377	727.7731323242189	1429.231567382813	409.1355590820315	619.3931274414062	1117.720947265625	479.1210937500002	599.4221801757814	1117.686767578125	403.8816528320314	584.1494750976564	1100.623779296875	441.4569702148439	664.3192749023438	863.8601684570315	485.5191955566408	601.2349243164062	880.8237304687502	516.8629150390627	662.1083984375	769.7708129882815	507.9320678710939	565.6809692382812	801.8375244140627	506.1153259277345	
127	1.26	861.1756591796877	916.016052246094	124.9064102172853	653.2034912109376	982.4991455078127	195.891082763672	646.5442504882814	964.0140380859377	292.0327758789064	850.2197265625002	917.6890869140627	357.2447204589845	769.1228027343752	867.280456542969	38.18218231201182	689.8750000000001	455.5310974121095	105.2345657348634	643.8684692382814	456.8480224609376	234.2344055175783	653.2954101562501	404.8086547851564	98.94705200195324	692.6600341796876	385.3628234863282	158.7618255615236	539.5380249023439	73.41643524169923	151.5489807128907	561.0490112304689	96.44789123535159	244.0763702392579	486.8038635253907	37.19066238403321	190.6499328613282	672.5024414062501	17.39151000976563	254.4001922607423	695.0755615234376	31.38055992126466	200.3948669433595	660.4564819335939	16.57934379577637	140.1992492675782	754.2094116210939	828.5484619140627	440.5932617187502	954.8150634765627	471.5989685058595	378.7710266113283	977.228210449219	465.8675842285157	245.855194091797	936.665222167969	417.1184082031251	383.4039916992189	1004.677124023438	402.6860961914064	336.1406250000002	899.1842041015627	78.68425750732423	358.3740234375002	935.222839355469	86.30091857910158	274.1463317871095	863.5959472656252	31.03404426574708	299.9622497558595	1060.851684570313	37.65673446655274	306.4768066406252	1056.1513671875	52.82632064819337	362.8388977050783	1011.015747070313	31.71949005126954	404.1079406738284	720.0023803710939	1459.060424804688	237.4814910888673	643.9857177734376	1249.212890625	229.4901123046876	867.121276855469	1139.757934570313	259.7883300781252	840.2437744140627	1369.882690429688	252.2140960693361	652.0063476562501	1286.371459960938	145.1932678222657	701.6835937500001	1408.370361328125	123.7333450317384	744.0114746093751	1400.936889648438	64.12554931640635	793.1628417968752	1416.399536132813	60.97205352783214	780.921325683594	1079.930786132813	-11.89042282104483	754.4443359375001	1074.084350585938	50.90470123291026	760.2042236328126	1048.516967773438	23.08518409729013	970.0425415039065	905.8442382812502	-9.006220817565801	914.8225708007815	880.442077636719	-47.74668502807607	1032.086059570313	851.3792724609377	-30.82265090942371	949.7759399414065	797.427429199219	-51.79826736450185	629.8249511718751	1281.295532226563	295.0197753906251	674.2598266601564	1413.2177734375	330.9994506835939	707.3874511718751	1415.793701171875	398.5231018066409	744.6921386718751	1426.792846679688	409.2056579589846	632.316650390625	1116.349243164063	476.6245727539064	613.8814697265626	1116.22021484375	401.0516662597658	598.0206909179689	1100.40478515625	438.1917419433595	666.6146850585938	860.9925537109377	485.805633544922	603.7762451171875	881.339294433594	515.5780029296877	659.0447387695312	767.3772583007814	509.6925354003908	564.6546020507812	804.4272460937502	505.547088623047	
128	1.27	877.5713500976565	913.4346313476565	124.9963684082033	670.1533203125001	980.399353027344	198.680877685547	664.1006469726564	961.431335449219	294.4813537597657	868.6081542968752	915.8277587890627	358.0940246582033	784.1397094726565	865.9489746093752	39.42831420898448	698.8618774414064	455.3802185058595	105.9370346069337	653.4860229492189	457.3825988769532	235.1666412353517	661.0551757812501	405.2932739257814	99.64044952392589	700.4141235351564	384.9392700195314	159.3123626708986	540.5691528320314	75.99684906005861	151.8044433593751	562.5645751953126	98.39216613769534	244.4547729492189	487.2691040039064	40.53546905517579	190.8548431396485	673.0734252929689	17.26686668395996	254.3779602050783	695.5748291015626	31.46339416503907	200.366668701172	660.8552246093751	16.97524452209473	140.2899322509767	773.199645996094	826.6115722656252	442.3897705078127	974.3243408203127	470.1050720214845	380.0509338378908	994.0628051757815	463.185516357422	246.7469482421877	959.2481079101565	414.1800231933595	384.9947204589846	1027.796020507813	403.8174133300782	337.2281494140627	948.7724609375002	73.2013626098633	360.0272216796877	983.5411376953127	83.76207733154298	275.5903930664064	916.633239746094	22.99510383605957	301.7195739746095	1112.739013671875	44.34637832641602	307.2304687500002	1107.152954101563	59.5797691345215	363.6795959472658	1064.217651367188	35.32509994506837	405.1392822265627	737.7684326171876	1456.707763671875	237.3360290527345	661.5119628906251	1246.951049804688	229.7275543212892	884.679138183594	1136.213989257813	260.0238342285158	858.1567382812502	1367.16796875	252.3899078369142	670.1284790039064	1283.968505859375	144.8594207763673	719.8253173828126	1406.051147460938	123.3851623535157	762.3948364257814	1398.80859375	63.95513916015636	811.540954589844	1414.553833007813	61.38428497314464	804.7176513671877	1078.077758789063	-13.13321781158438	777.5175781250002	1071.396606445313	49.34825897216808	784.5097656250002	1045.675415039063	21.46358871459971	1002.689758300781	913.7707519531252	-7.328351020812867	949.4794921875002	885.3621215820315	-46.80488204956044	1067.704956054688	862.3836669921877	-27.93175697326648	988.6898193359377	804.2777099609377	-50.24340438842763	647.3925170898439	1278.714233398438	294.4288330078126	691.6668090820314	1410.702514648438	330.4944152832032	724.4190063476564	1413.525390625	398.3344421386721	761.7250976562501	1424.390014648438	409.3628845214846	645.5361938476562	1115.0341796875	474.1143493652345	628.6303100585939	1114.729736328125	398.2962036132814	612.2282714843751	1100.151733398438	434.9856872558595	669.5204467773438	858.7134399414065	486.0651245117189	607.02880859375	882.288513183594	514.0751953125002	656.6751098632812	765.7752075195314	511.3113708496095	564.5916748046875	807.5874023437502	504.576873779297	
